<?xml version="1.0" encoding="UTF-8" standalone="no"?>
<!-- Created with Inkscape (http://www.inkscape.org/) -->

<svg
   width="200"
   height="191.57501"
   viewBox="0 0 52.916662 50.687554"
   version="1.1"
   id="svg5"
   inkscape:version="1.1 (c68e22c387, 2021-05-23)"
   sodipodi:docname="chat-bubble-filled.svg"
   xmlns:inkscape="http://www.inkscape.org/namespaces/inkscape"
   xmlns:sodipodi="http://sodipodi.sourceforge.net/DTD/sodipodi-0.dtd"
   xmlns="http://www.w3.org/2000/svg"
   xmlns:svg="http://www.w3.org/2000/svg">
  <sodipodi:namedview
     id="namedview7"
     pagecolor="#ffffff"
     bordercolor="#666666"
     borderopacity="1.0"
     inkscape:pageshadow="2"
     inkscape:pageopacity="0.0"
     inkscape:pagecheckerboard="0"
     inkscape:document-units="px"
     showgrid="false"
     inkscape:zoom="1.0998546"
     inkscape:cx="329.58902"
     inkscape:cy="163.20339"
     inkscape:window-width="2560"
     inkscape:window-height="1377"
     inkscape:window-x="1912"
     inkscape:window-y="-8"
     inkscape:window-maximized="1"
     inkscape:current-layer="layer1"
     fit-margin-top="0"
     fit-margin-left="0"
     fit-margin-right="0"
     fit-margin-bottom="0"
     units="px" />
  <defs
     id="defs2" />
  <g
     inkscape:label="Layer 1"
     inkscape:groupmode="layer"
     id="layer1"
     transform="translate(-5.410994,-4.8622013)">
    <g
       id="g1410"
       transform="matrix(0.39062498,0,0,0.39062498,3.2973246,2.962904)">
      <path
         style="fill:#555e25;stroke-width:0.264583"
         d="M 118.78812,134.62234 83.333961,105.57744 H 34.565962 C 18.491994,105.57321 5.410994,92.229735 5.410994,75.825568 V 34.609835 c 0,-16.404167 13.081,-29.7476327 29.154968,-29.7476327 h 77.160958 c 16.06974,-0.0042 29.15074,13.3434657 29.15074,29.7476327 v 41.215733 c 0,13.8049 -9.26254,25.594742 -22.08954,28.850172 z M 34.565962,13.324635 c -11.408835,0 -20.688301,9.546167 -20.688301,21.2852 v 41.215733 c 0,11.7348 9.279466,21.280969 20.688301,21.280969 H 86.360794 L 110.32146,116.73651 V 97.398637 l 3.74226,-0.44027 c 10.46057,-1.22766 18.34727,-10.312399 18.34727,-21.132799 V 34.609835 c 0,-11.7348 -9.27947,-21.280967 -20.6883,-21.280967 H 34.565962 Z"
         id="path9" />
      <path
         style="fill:#fafffe;fill-opacity:1;stroke-width:0.642909"
         d="m 371.31803,403.30768 -44.96576,-36.84936 h -101.7555 c -97.59938,0 -102.01245,-0.0503 -108.04666,-1.23013 -15.42376,-3.01586 -29.136613,-10.37302 -40.246745,-21.59302 -6.637609,-6.70325 -10.385793,-12.03245 -14.921919,-21.21614 -4.526834,-9.16488 -6.94486,-17.2429 -8.060412,-26.92784 -0.450191,-3.90843 -0.598943,-34.23517 -0.446579,-91.04602 0.226641,-84.50598 0.239429,-85.22908 1.603077,-90.65022 4.397781,-17.483217 11.546563,-30.108684 23.60062,-41.68106 11.380294,-10.925539 25.251628,-17.900913 40.524058,-20.378029 4.97436,-0.806817 27.47285,-0.941222 157.92531,-0.943439 162.74376,-0.0028 156.22615,-0.11995 167.07992,3.004046 23.99173,6.90545 44.78312,27.57981 52.57951,52.283572 3.81672,12.0937 3.67505,8.11605 3.67505,103.18695 0,96.48361 0.23684,90.36226 -3.99133,103.16091 -8.05528,24.38329 -28.40977,44.20276 -52.48794,51.10828 -4.62899,1.32758 -22.34584,4.20796 -25.88263,4.20796 -0.73795,0 -0.91171,5.99019 -1.05027,36.20645 l -0.16604,36.20645 z"
         id="path1253"
         transform="scale(0.26458333)" />
    </g>
  </g>
</svg>
