<?xml version="1.0" encoding="UTF-8" standalone="no"?>
<!-- Created with Inkscape (http://www.inkscape.org/) -->

<svg
   width="385"
   height="385"
   viewBox="0 0 101.86458 101.86458"
   version="1.1"
   id="svg5"
   inkscape:version="1.1.2 (b8e25be833, 2022-02-05)"
   sodipodi:docname="corner-sticker-github.svg"
   xmlns:inkscape="http://www.inkscape.org/namespaces/inkscape"
   xmlns:sodipodi="http://sodipodi.sourceforge.net/DTD/sodipodi-0.dtd"
   xmlns:xlink="http://www.w3.org/1999/xlink"
   xmlns="http://www.w3.org/2000/svg"
   xmlns:svg="http://www.w3.org/2000/svg">
  <sodipodi:namedview
     id="namedview7"
     pagecolor="#505050"
     bordercolor="#eeeeee"
     borderopacity="1"
     inkscape:pageshadow="0"
     inkscape:pageopacity="0"
     inkscape:pagecheckerboard="0"
     inkscape:document-units="px"
     showgrid="false"
     units="px"
     width="350px"
     inkscape:snap-page="true"
     inkscape:zoom="2.1997092"
     inkscape:cx="155.41736"
     inkscape:cy="143.05643"
     inkscape:window-width="2560"
     inkscape:window-height="1377"
     inkscape:window-x="-8"
     inkscape:window-y="-8"
     inkscape:window-maximized="1"
     inkscape:current-layer="layer6" />
  <defs
     id="defs2">
    <linearGradient
       inkscape:collect="always"
       id="linearGradient54366">
      <stop
         style="stop-color:#953011;stop-opacity:0.55140185"
         offset="0"
         id="stop54362" />
      <stop
         style="stop-color:#cc6647;stop-opacity:0"
         offset="0.20836917"
         id="stop54882" />
      <stop
         style="stop-color:#953011;stop-opacity:0"
         offset="1"
         id="stop54364" />
    </linearGradient>
    <linearGradient
       inkscape:collect="always"
       id="linearGradient7936">
      <stop
         style="stop-color:#83331b;stop-opacity:1"
         offset="0"
         id="stop7932" />
      <stop
         style="stop-color:#81260a;stop-opacity:1"
         offset="0.42271295"
         id="stop8362" />
      <stop
         style="stop-color:#932000;stop-opacity:0.18039218"
         offset="0.7045216"
         id="stop9004" />
      <stop
         style="stop-color:#a62400;stop-opacity:0"
         offset="1"
         id="stop7934" />
    </linearGradient>
    <linearGradient
       inkscape:collect="always"
       id="linearGradient4095">
      <stop
         style="stop-color:#000000;stop-opacity:1;"
         offset="0"
         id="stop4091" />
      <stop
         style="stop-color:#000000;stop-opacity:0;"
         offset="1"
         id="stop4093" />
    </linearGradient>
    <linearGradient
       inkscape:collect="always"
       xlink:href="#linearGradient4095"
       id="linearGradient4097"
       x1="52.516842"
       y1="38.053478"
       x2="45.286915"
       y2="45.283405"
       gradientUnits="userSpaceOnUse"
       gradientTransform="matrix(1.1,0,0,1.1,-6.6145668,0)" />
    <linearGradient
       inkscape:collect="always"
       xlink:href="#linearGradient7936"
       id="linearGradient7938"
       x1="46.218044"
       y1="46.38612"
       x2="50.132938"
       y2="42.471226"
       gradientUnits="userSpaceOnUse"
       gradientTransform="translate(2.6458331)" />
    <clipPath
       clipPathUnits="userSpaceOnUse"
       id="clipPath51914">
      <path
         id="path51916"
         style="fill:#6b1c03;fill-opacity:1;fill-rule:evenodd;stroke:none;stroke-width:0.352777"
         d="M 68.126074,3.1749999 C 62.673935,3.1748134 57.221338,5.2544338 53.06136,9.4144124 46.405992,16.06978 45.075884,26.032598 49.069354,34.009811 c 0.613399,0.892286 1.356024,0.702249 1.753899,0.304374 0.35896,-0.358963 1.532027,-1.559468 2.784327,-2.824636 -5.10203,-3.279535 -3.297992,-6.85281 -3.297992,-6.85281 1.055682,-2.426166 0.531752,-3.876766 0.531752,-3.876766 -0.431795,-2.301683 1.018542,-0.812354 1.018542,-0.812354 1.406414,1.618944 0.756542,3.86178 0.756542,3.86178 -0.959141,3.646233 1.88708,5.16061 3.131592,5.635315 1.108813,-0.837907 2.1639,-1.112449 2.970879,-1.057818 -2.965233,-3.726557 -5.190698,-8.535593 0.581359,-14.307652 1.644385,-1.644385 3.576963,-2.400022 5.595524,-2.491321 0.223012,-0.535821 1.23942,-2.5838611 4.132564,-3.8405925 0,0 1.66987,0.8606401 2.599325,5.6880255 1.535375,0.867841 2.991083,1.989165 4.27726,3.263366 1.274177,1.286199 2.3969,2.743261 3.266982,4.280876 4.82415,0.926216 5.682342,2.594156 5.682342,2.594156 -1.254985,2.894892 -3.302706,3.911104 -3.838527,4.134116 -0.08905,2.020808 -0.848487,3.949072 -2.49287,5.593455 -5.78603,5.78603 -10.583968,3.535931 -14.311272,0.554487 0.07284,1.007788 -0.36244,2.405727 -1.767851,3.811138 -2.015569,2.015569 -3.655007,3.620902 -4.151167,4.117062 -0.401119,0.401116 -0.599635,1.141106 0.311608,1.756997 7.976465,3.988237 17.931691,2.654652 24.585067,-3.998721 8.319955,-8.319958 8.319457,-21.808418 0,-30.1278756 C 79.030005,5.2551818 73.57821,3.1751864 68.126074,3.1749999 Z M 52.037132,21.100004 c -0.01624,8.99e-4 -0.03217,0.0041 -0.04754,0.01033 -0.110509,0.03967 -0.151069,0.202834 -0.09095,0.361736 0.05587,0.158652 0.196128,0.25431 0.304374,0.21239 0.112761,-0.03742 0.153139,-0.202813 0.09302,-0.361219 -0.04974,-0.138063 -0.15965,-0.22868 -0.2589,-0.223242 z m 0.119891,1.140499 c -0.13747,-3.97e-4 -0.256413,0.156983 -0.262517,0.3576 -0.01024,0.200302 0.09927,0.372038 0.237712,0.377239 0.142674,0.0075 0.262766,-0.151002 0.270266,-0.356051 0.0065,-0.203548 -0.09857,-0.370772 -0.239262,-0.378272 -0.0021,-8.6e-5 -0.004,-5.02e-4 -0.0062,-5.29e-4 z m -0.188619,1.368908 c -0.143251,0.0042 -0.278797,0.155432 -0.316778,0.360702 -0.04066,0.227253 0.05056,0.438698 0.207222,0.466638 0.159779,0.02857 0.320169,-0.13245 0.36432,-0.360702 0.03815,-0.227235 -0.05216,-0.434091 -0.209806,-0.46302 -0.0149,-0.0028 -0.03014,-0.004 -0.04496,-0.0036 z m -0.156581,1.563213 c -0.0027,1.5e-5 -0.0055,3.96e-4 -0.0083,5.29e-4 -0.173619,0.0085 -0.309171,0.217309 -0.29869,0.470255 0.0042,0.253187 0.155561,0.453434 0.329178,0.444934 0.177861,-0.0022 0.311809,-0.215206 0.302308,-0.467155 -0.0064,-0.248986 -0.152911,-0.44951 -0.324527,-0.448551 z m 0.331761,1.6862 c -0.03872,2.23e-4 -0.07634,0.0092 -0.110069,0.02739 -0.153659,0.08482 -0.179715,0.334021 -0.06098,0.556038 0.120486,0.220768 0.342955,0.336571 0.497644,0.25528 0.155411,-0.08457 0.180747,-0.333496 0.06201,-0.555003 -0.09238,-0.176181 -0.250328,-0.284493 -0.38861,-0.283705 z m 0.992188,1.452108 c -0.07083,0.0021 -0.134329,0.02582 -0.181383,0.07286 -0.120237,0.124228 -0.07451,0.370597 0.109554,0.546738 0.181356,0.176861 0.428821,0.218903 0.548804,0.09043 0.12323,-0.12323 0.07612,-0.370584 -0.106453,-0.546222 -0.114435,-0.110382 -0.252468,-0.16723 -0.370522,-0.163814 z m 1.295014,1.028877 c -0.09745,0.0021 -0.181854,0.03835 -0.231511,0.109037 -0.09779,0.142182 -0.01066,0.378736 0.196369,0.521417 0.211037,0.144635 0.459581,0.144992 0.559138,0.0026 0.100529,-0.145923 0.01421,-0.378372 -0.194818,-0.525547 -0.106759,-0.07355 -0.225443,-0.109725 -0.329178,-0.107489 z" />
    </clipPath>
    <filter
       inkscape:collect="always"
       style="color-interpolation-filters:sRGB"
       id="filter51958"
       x="-0.025722518"
       y="-0.028411005"
       width="1.051445"
       height="1.056822">
      <feGaussianBlur
         inkscape:collect="always"
         stdDeviation="0.6760721"
         id="feGaussianBlur51960" />
    </filter>
    <linearGradient
       inkscape:collect="always"
       xlink:href="#linearGradient54366"
       id="linearGradient54368"
       x1="47.238838"
       y1="0"
       x2="47.238838"
       y2="101.86458"
       gradientUnits="userSpaceOnUse" />
  </defs>
  <g
     inkscape:label="Base"
     id="layer1"
     style="display:inline"
     transform="translate(6.6145829)">
    <rect
       style="display:inline;fill:url(#linearGradient4097);fill-opacity:1;stroke:none;stroke-width:2.8501;stroke-linecap:round;stroke-miterlimit:4;stroke-dasharray:5.70018, 11.4004;stroke-dashoffset:0"
       id="rect3899"
       width="101.86458"
       height="101.86458"
       x="-6.6145811"
       y="-7.1054274e-15"
       inkscape:label="shadow" />
    <path
       id="rect943"
       style="display:inline;fill:#953011;fill-opacity:1;stroke-width:0.082214"
       d="M 2.6458331,0 H 95.249997 v 92.604164 z"
       sodipodi:nodetypes="cccc"
       inkscape:label="base" />
    <path
       id="path7929"
       style="display:inline;fill:url(#linearGradient7938);fill-opacity:1;stroke-width:0.082214"
       d="M 2.6458331,0 H 95.249997 v 92.604164 z"
       sodipodi:nodetypes="cccc"
       inkscape:label="base-shadow-1" />
  </g>
  <g
     inkscape:groupmode="layer"
     id="layer3"
     inkscape:label="Stich"
     style="display:inline">
    <path
       style="display:inline;mix-blend-mode:normal;fill:none;stroke:#6b1c03;stroke-width:1;stroke-linecap:round;stroke-linejoin:miter;stroke-miterlimit:4;stroke-dasharray:2, 4;stroke-dashoffset:4.6;stroke-opacity:1"
       d="M 17.197915,0.39687499 101.86458,85.063538"
       id="path1514"
       sodipodi:nodetypes="cc"
       inkscape:label="stiches-hilight" />
    <path
       style="display:inline;fill:none;stroke:#000000;stroke-width:1;stroke-linecap:round;stroke-linejoin:miter;stroke-miterlimit:4;stroke-dasharray:2, 4;stroke-dashoffset:4.6;stroke-opacity:1"
       d="M 17.197916,0 101.86458,84.666664"
       id="path12969"
       sodipodi:nodetypes="cc"
       inkscape:label="stiches-base" />
  </g>
  <g
     id="layer5"
     inkscape:label="github-logo"
     inkscape:groupmode="layer">
    <path
       id="path51912"
       style="fill:#6b1c03;fill-opacity:1;fill-rule:evenodd;stroke:none;stroke-width:0.352777"
       d="M 77.386638,3.175 C 71.934499,3.1748134 66.481903,5.2544339 62.321925,9.4144123 55.666556,16.06978 54.336448,26.032598 58.329918,34.009811 c 0.6134,0.892286 1.356024,0.702249 1.753899,0.304374 0.35896,-0.358963 1.532028,-1.559467 2.784327,-2.824636 -5.102029,-3.279534 -3.297992,-6.85281 -3.297992,-6.85281 1.055683,-2.426166 0.531752,-3.876766 0.531752,-3.876766 -0.431795,-2.301683 1.018543,-0.812354 1.018543,-0.812354 1.406414,1.618944 0.756541,3.86178 0.756541,3.86178 -0.959141,3.646233 1.88708,5.16061 3.131593,5.635315 1.108813,-0.837906 2.1639,-1.112448 2.970879,-1.057817 -2.965233,-3.726558 -5.190699,-8.535594 0.581358,-14.307653 1.644386,-1.644385 3.576963,-2.400022 5.595525,-2.491321 0.223012,-0.535821 1.23942,-2.5838612 4.132564,-3.8405924 0,0 1.66987,0.8606399 2.599325,5.6880244 1.535374,0.867841 2.991083,1.989166 4.277259,3.263367 1.274178,1.286199 2.3969,2.743261 3.266983,4.280876 4.824148,0.926216 5.68234,2.594157 5.68234,2.594157 -1.254985,2.894891 -3.302704,3.911103 -3.838525,4.134115 -0.08905,2.020808 -0.848487,3.949073 -2.49287,5.593456 -5.78603,5.78603 -10.583968,3.535931 -14.311273,0.554487 0.07284,1.007787 -0.362439,2.405727 -1.76785,3.811138 -2.015569,2.015569 -3.655007,3.620902 -4.151167,4.117062 -0.401119,0.401116 -0.599636,1.141105 0.311608,1.756997 7.976465,3.988237 17.93169,2.654652 24.585064,-3.998722 8.319939,-8.319958 8.319439,-21.808418 0,-30.1278757 C 88.29057,5.2551819 82.838775,3.1751865 77.386638,3.175 Z M 61.297696,21.100004 c -0.01624,8.99e-4 -0.03217,0.0041 -0.04754,0.01033 -0.110508,0.03967 -0.151069,0.202835 -0.09095,0.361736 0.05587,0.158653 0.196128,0.25431 0.304374,0.21239 0.11276,-0.03742 0.153138,-0.202812 0.09302,-0.361219 -0.04974,-0.138063 -0.15965,-0.22868 -0.258901,-0.223242 z m 0.119891,1.140499 c -0.137469,-3.97e-4 -0.256413,0.156983 -0.262517,0.3576 -0.01024,0.200303 0.09927,0.372039 0.237712,0.377239 0.142674,0.0075 0.262766,-0.151002 0.270267,-0.356051 0.0065,-0.203548 -0.09857,-0.370772 -0.239263,-0.378272 -0.0021,-8.6e-5 -0.004,-5.02e-4 -0.0062,-5.29e-4 z m -0.188619,1.368908 c -0.14325,0.0042 -0.278796,0.155432 -0.316777,0.360702 -0.04066,0.227253 0.05056,0.438698 0.207221,0.466638 0.159779,0.02857 0.32017,-0.13245 0.364321,-0.360701 0.03815,-0.227235 -0.05216,-0.434091 -0.209807,-0.463021 -0.0149,-0.0028 -0.03014,-0.004 -0.04496,-0.0036 z m -0.15658,1.563212 c -0.0027,1.6e-5 -0.0055,3.97e-4 -0.0083,5.3e-4 -0.17362,0.0085 -0.309171,0.217309 -0.298691,0.470255 0.0042,0.253187 0.155562,0.453434 0.329179,0.444934 0.177861,-0.0022 0.311809,-0.215206 0.302307,-0.467155 -0.0064,-0.248987 -0.15291,-0.44951 -0.324527,-0.448551 z m 0.331761,1.686202 c -0.03872,2.22e-4 -0.07635,0.0092 -0.110069,0.02739 -0.15366,0.08481 -0.179716,0.33402 -0.06098,0.556037 0.120486,0.220769 0.342956,0.336571 0.497644,0.255281 0.155411,-0.08457 0.180748,-0.333497 0.06201,-0.555003 -0.09238,-0.176181 -0.250327,-0.284494 -0.388609,-0.283705 z m 0.992187,1.452107 c -0.07083,0.0021 -0.134329,0.02582 -0.181382,0.07286 -0.120237,0.124227 -0.07451,0.370596 0.109553,0.546737 0.181356,0.176861 0.428821,0.218904 0.548804,0.09043 0.12323,-0.12323 0.07612,-0.370583 -0.106452,-0.546222 -0.114435,-0.110381 -0.252468,-0.16723 -0.370523,-0.163814 z m 1.295014,1.028878 c -0.09745,0.0021 -0.181853,0.03835 -0.23151,0.109037 -0.09779,0.142182 -0.01066,0.378735 0.196368,0.521417 0.211037,0.144634 0.459581,0.144992 0.559139,0.0026 0.100528,-0.145923 0.01421,-0.378373 -0.194818,-0.525547 -0.10676,-0.07355 -0.225444,-0.109726 -0.329179,-0.10749 z" />
    <path
       id="rect51594"
       style="display:inline;mix-blend-mode:normal;fill:#000000;fill-opacity:1;stroke-width:1;stroke-linecap:round;stroke-dasharray:2, 4;stroke-dashoffset:4.59999;filter:url(#filter51958)"
       d="M 34.061399,-1.1612562 V 55.949469 h 63.07987 V -1.1612562 Z m 33.800004,4.6007528 c 5.452137,1.865e-4 10.903932,2.0801819 15.063163,6.2394123 8.319458,8.3194581 8.319955,21.8079181 0,30.1278761 -6.653373,6.653374 -16.608599,7.986959 -24.585064,3.998722 -0.911244,-0.615892 -0.712727,-1.355881 -0.311608,-1.756997 0.49616,-0.49616 2.135598,-2.101493 4.151167,-4.117062 1.405411,-1.405411 1.84069,-2.803351 1.767851,-3.811138 3.727304,2.981444 8.525242,5.231543 14.311272,-0.554487 1.644383,-1.644383 2.403819,-3.572648 2.49287,-5.593456 0.535821,-0.223012 2.58354,-1.239224 3.838525,-4.134115 0,0 -0.858192,-1.667941 -5.68234,-2.594157 C 78.037157,19.70648 76.914434,18.249418 75.640257,16.963219 74.35408,15.689018 72.898372,14.567693 71.362997,13.699852 70.433542,8.8724671 68.763672,8.0118272 68.763672,8.0118272 65.870528,9.2685584 64.85412,11.316599 64.631108,11.85242 c -2.018562,0.0913 -3.951139,0.846936 -5.595524,2.491321 -5.772058,5.772059 -3.546592,10.581096 -0.581359,14.307653 -0.806979,-0.05463 -1.862066,0.219911 -2.970879,1.057817 -1.244513,-0.474705 -4.090733,-1.989082 -3.131592,-5.635315 0,0 0.649872,-2.242836 -0.756542,-3.86178 0,0 -1.450337,-1.489329 -1.018543,0.812354 0,0 0.523931,1.4506 -0.531751,3.876766 0,0 -1.804038,3.573276 3.297991,6.85281 -1.252299,1.265171 -2.425366,2.465673 -2.784327,2.824636 -0.397875,0.397875 -1.140499,0.587912 -1.753899,-0.304374 C 44.811213,26.297093 46.141319,16.334277 52.79669,9.6789089 56.956668,5.5189305 62.409262,3.43931 67.861403,3.4394966 Z M 51.772462,21.364501 c 0.09925,-0.0054 0.209163,0.08518 0.2589,0.223242 0.06012,0.158406 0.01974,0.323801 -0.09302,0.361218 -0.108246,0.04192 -0.248502,-0.05374 -0.304374,-0.21239 -0.06012,-0.158901 -0.01956,-0.322069 0.09095,-0.361735 0.01537,-0.0062 0.0313,-0.0094 0.04754,-0.01034 z m 0.11989,1.140499 c 0.0022,2.6e-5 0.0041,4.3e-4 0.0062,5.16e-4 0.140695,0.0075 0.245745,0.174724 0.239263,0.378272 -0.0075,0.205049 -0.127593,0.363522 -0.270266,0.356051 -0.138446,-0.0052 -0.247952,-0.176936 -0.237713,-0.377239 0.0061,-0.200617 0.125048,-0.357997 0.262517,-0.3576 z m -0.188619,1.368908 c 0.01482,-4.31e-4 0.03006,8e-4 0.04496,0.0036 0.15765,0.02893 0.24796,0.235786 0.209807,0.463021 -0.04415,0.228251 -0.204541,0.389268 -0.364321,0.360701 -0.156659,-0.02794 -0.247882,-0.239385 -0.207221,-0.466638 0.03798,-0.20527 0.173527,-0.356534 0.316777,-0.360702 z m -0.15658,1.563212 c 0.171617,-9.58e-4 0.318151,0.199565 0.324527,0.448552 0.0095,0.251949 -0.124446,0.464906 -0.302307,0.467155 -0.173617,0.0085 -0.324946,-0.191747 -0.329179,-0.444934 -0.01048,-0.252946 0.125071,-0.461776 0.298691,-0.470256 0.0027,-1.32e-4 0.0055,-5.01e-4 0.0083,-5.17e-4 z m 0.331761,1.686202 c 0.138285,-7.89e-4 0.296228,0.107524 0.388609,0.283705 0.118735,0.221506 0.0934,0.470437 -0.06201,0.555003 -0.154688,0.08129 -0.377158,-0.03451 -0.497644,-0.255281 -0.118737,-0.222017 -0.09268,-0.471223 0.06098,-0.556037 0.03372,-0.01824 0.07135,-0.02717 0.110069,-0.02739 z m 0.992188,1.452107 c 0.118057,-0.0034 0.256087,0.05343 0.370522,0.163814 0.182568,0.175639 0.229682,0.422992 0.106453,0.546222 -0.119984,0.128469 -0.367449,0.08643 -0.548805,-0.09043 -0.18406,-0.176141 -0.22979,-0.42251 -0.109553,-0.546737 0.04705,-0.04704 0.110551,-0.07075 0.181383,-0.07286 z m 1.295013,1.028878 c 0.103735,-0.0022 0.22242,0.03394 0.329179,0.107489 0.209026,0.147175 0.295349,0.379624 0.194818,0.525547 -0.09956,0.142346 -0.348102,0.142052 -0.559139,-0.0026 -0.207031,-0.142682 -0.294158,-0.379235 -0.196368,-0.521417 0.04966,-0.07069 0.134059,-0.106918 0.23151,-0.109037 z"
       clip-path="url(#clipPath51914)"
       inkscape:label="logo-shadow"
       transform="translate(9.2605598)" />
  </g>
  <g
     inkscape:groupmode="layer"
     id="layer6"
     inkscape:label="Effects">
    <path
       id="path54035"
       style="display:inline;fill:url(#linearGradient54368);fill-opacity:1;stroke-width:0.082214"
       d="M 9.2604161,0 H 101.86458 v 92.604164 z"
       sodipodi:nodetypes="cccc"
       inkscape:label="base" />
  </g>
</svg>
