<?xml version="1.0" encoding="iso-8859-1"?>
<!-- Generator: Adobe Illustrator 19.0.0, SVG Export Plug-In . SVG Version: 6.00 Build 0)  -->
<svg version="1.1" id="Layer_1" xmlns="http://www.w3.org/2000/svg" xmlns:xlink="http://www.w3.org/1999/xlink" x="0px" y="0px"
	 viewBox="0 0 512 512" style="enable-background:new 0 0 512 512;" xml:space="preserve">
<path style="fill:#555E25;" d="M428.512,501.216l-134-109.776h-184.32C49.44,391.424,0,340.992,0,278.992V123.216
	c0-62,49.44-112.432,110.192-112.432h291.632C462.56,10.768,512,61.216,512,123.216v155.776c0,52.176-35.008,96.736-83.488,109.04
	V501.216z M110.192,42.768C67.072,42.768,32,78.848,32,123.216v155.776c0,44.352,35.072,80.432,78.192,80.432h195.76l90.56,74.192
	v-73.088l14.144-1.664c39.536-4.64,69.344-38.976,69.344-79.872V123.216c0-44.352-35.072-80.432-78.192-80.432H110.192V42.768z"/>
</svg>
